<svg width="871" height="305" viewBox="0 0 871 305" fill="none" xmlns="http://www.w3.org/2000/svg">
<path opacity="0.8" d="M0 286.5H116.931V230.5H147.969V138H160.961V110.5H184.059V143H197.412V293.5H203.186V237.5H220.51V217.5H232.78V237.5H256.6V256H263.457V303H271.396V149L286.193 143V162H314.344V286.5H337.802V194H360.178V221.5H374.614V252.5H392.659V240.5H406.373V262H422.252V208.5H433.801V217.5H446.072V208.5H460.147V221.5H471.335V208.5H483.605V270.5H489.741V297.5H508.868V249H520.778V232.5L541.71 217.5V300.5H548.206V208.5L572.748 217.5V262H592.958V300.5H599.815V172.5H615.695V300.5H629.409V153H647.815V141H715.664V236H738.761V289H749.227V131L777.378 121V289H786.4V33.5L817.437 4V281.5H823.934V4H869.407V295.5" stroke="#1E180F" stroke-opacity="0.2" stroke-width="3"/>
</svg>
